<?xml version="1.0" encoding="UTF-8" standalone="no"?>
<!DOCTYPE svg PUBLIC "-//W3C//DTD SVG 1.1//EN"
 "http://www.w3.org/Graphics/SVG/1.1/DTD/svg11.dtd">
<!-- Generated by graphviz version 2.38.0 (20140413.2041)
 -->
<!-- Title: controllers_diagram Pages: 1 -->
<svg width="352pt" height="328pt"
 viewBox="0.00 0.00 352.00 328.00" xmlns="http://www.w3.org/2000/svg" xmlns:xlink="http://www.w3.org/1999/xlink">
<g id="graph0" class="graph" transform="scale(1 1) rotate(0) translate(116 198)">
<title>controllers_diagram</title>
<polygon fill="none" stroke="none" points="-116,130 -116,-198 236,-198 236,130 -116,130"/>
<!-- _diagram_info -->
<g id="node1" class="node"><title>_diagram_info</title>
<text text-anchor="start" x="-104" y="-21.6" font-family="Times,serif" font-size="13.00">Controllers diagram</text>
<text text-anchor="start" x="-104" y="-7.6" font-family="Times,serif" font-size="13.00">Date: Dec 05 2015 &#45; 20:10</text>
<text text-anchor="start" x="-104" y="6.4" font-family="Times,serif" font-size="13.00">Migration version: 20151204170040</text>
<text text-anchor="start" x="-104" y="20.4" font-family="Times,serif" font-size="13.00">Generated by RailRoady 1.4.1</text>
<text text-anchor="start" x="-104" y="34.4" font-family="Times,serif" font-size="13.00">http://railroady.prestonlee.com</text>
</g>
<!-- WinesController -->
<g id="node2" class="node"><title>WinesController</title>
<path fill="none" stroke="black" d="M81.5,-70.5C81.5,-70.5 164.5,-70.5 164.5,-70.5 170.5,-70.5 176.5,-76.5 176.5,-82.5 176.5,-82.5 176.5,-181.5 176.5,-181.5 176.5,-187.5 170.5,-193.5 164.5,-193.5 164.5,-193.5 81.5,-193.5 81.5,-193.5 75.5,-193.5 69.5,-187.5 69.5,-181.5 69.5,-181.5 69.5,-82.5 69.5,-82.5 69.5,-76.5 75.5,-70.5 81.5,-70.5"/>
<text text-anchor="middle" x="123" y="-178.3" font-family="Times,serif" font-size="14.00">WinesController</text>
<polyline fill="none" stroke="black" points="69.5,-170.5 176.5,-170.5 "/>
<text text-anchor="start" x="77.5" y="-155.3" font-family="Times,serif" font-size="14.00">index</text>
<text text-anchor="start" x="77.5" y="-140.3" font-family="Times,serif" font-size="14.00">refresh</text>
<text text-anchor="start" x="77.5" y="-125.3" font-family="Times,serif" font-size="14.00">show</text>
<polyline fill="none" stroke="black" points="69.5,-117.5 176.5,-117.5 "/>
<polyline fill="none" stroke="black" points="69.5,-93.5 176.5,-93.5 "/>
<text text-anchor="start" x="77.5" y="-78.3" font-family="Times,serif" font-size="14.00">_layout</text>
</g>
<!-- HomeController -->
<g id="node3" class="node"><title>HomeController</title>
<path fill="none" stroke="black" d="M138,125.5C138,125.5 220,125.5 220,125.5 226,125.5 232,119.5 232,113.5 232,113.5 232,44.5 232,44.5 232,38.5 226,32.5 220,32.5 220,32.5 138,32.5 138,32.5 132,32.5 126,38.5 126,44.5 126,44.5 126,113.5 126,113.5 126,119.5 132,125.5 138,125.5"/>
<text text-anchor="middle" x="179" y="47.7" font-family="Times,serif" font-size="14.00">HomeController</text>
<polyline fill="none" stroke="black" points="126,55.5 232,55.5 "/>
<text text-anchor="start" x="134" y="70.7" font-family="Times,serif" font-size="14.00">index</text>
<polyline fill="none" stroke="black" points="126,78.5 232,78.5 "/>
<polyline fill="none" stroke="black" points="126,102.5 232,102.5 "/>
<text text-anchor="start" x="134" y="117.7" font-family="Times,serif" font-size="14.00">_layout</text>
</g>
<!-- ApplicationController -->
<g id="node4" class="node"><title>ApplicationController</title>
<path fill="none" stroke="black" d="M-86,-99C-86,-99 26,-99 26,-99 32,-99 38,-105 38,-111 38,-111 38,-181 38,-181 38,-187 32,-193 26,-193 26,-193 -86,-193 -86,-193 -92,-193 -98,-187 -98,-181 -98,-181 -98,-111 -98,-111 -98,-105 -92,-99 -86,-99"/>
<text text-anchor="middle" x="-30" y="-177.8" font-family="Times,serif" font-size="14.00">ApplicationController</text>
<polyline fill="none" stroke="black" points="-98,-170 38,-170 "/>
<polyline fill="none" stroke="black" points="-98,-146 38,-146 "/>
<polyline fill="none" stroke="black" points="-98,-122 38,-122 "/>
<text text-anchor="start" x="-90" y="-106.8" font-family="Times,serif" font-size="14.00">_layout</text>
</g>
</g>
</svg>
