<?xml version="1.0" encoding="UTF-8" standalone="no"?>
<!DOCTYPE svg PUBLIC "-//W3C//DTD SVG 1.1//EN"
 "http://www.w3.org/Graphics/SVG/1.1/DTD/svg11.dtd">
<!-- Generated by graphviz version 2.38.0 (20140413.2041)
 -->
<!-- Title: models_diagram Pages: 1 -->
<svg width="398pt" height="220pt"
 viewBox="0.00 0.00 398.00 220.00" xmlns="http://www.w3.org/2000/svg" xmlns:xlink="http://www.w3.org/1999/xlink">
<g id="graph0" class="graph" transform="scale(1 1) rotate(0) translate(4 216)">
<title>models_diagram</title>
<polygon fill="none" stroke="none" points="-4,4 -4,-216 394,-216 394,4 -4,4"/>
<!-- _diagram_info -->
<g id="node1" class="node"><title>_diagram_info</title>
<text text-anchor="start" x="8" y="-130.6" font-family="Times,serif" font-size="13.00">Models diagram</text>
<text text-anchor="start" x="8" y="-116.6" font-family="Times,serif" font-size="13.00">Date: Dec 05 2015 &#45; 20:10</text>
<text text-anchor="start" x="8" y="-102.6" font-family="Times,serif" font-size="13.00">Migration version: 20151204170040</text>
<text text-anchor="start" x="8" y="-88.6" font-family="Times,serif" font-size="13.00">Generated by RailRoady 1.4.1</text>
<text text-anchor="start" x="8" y="-74.6" font-family="Times,serif" font-size="13.00">http://railroady.prestonlee.com</text>
</g>
<!-- Wine -->
<g id="node2" class="node"><title>Wine</title>
<path fill="none" stroke="black" d="M244,-0.5C244,-0.5 378,-0.5 378,-0.5 384,-0.5 390,-6.5 390,-12.5 390,-12.5 390,-199.5 390,-199.5 390,-205.5 384,-211.5 378,-211.5 378,-211.5 244,-211.5 244,-211.5 238,-211.5 232,-205.5 232,-199.5 232,-199.5 232,-12.5 232,-12.5 232,-6.5 238,-0.5 244,-0.5"/>
<text text-anchor="middle" x="311" y="-196.3" font-family="Times,serif" font-size="14.00">Wine</text>
<polyline fill="none" stroke="black" points="232,-188.5 390,-188.5 "/>
<text text-anchor="start" x="240" y="-173.3" font-family="Times,serif" font-size="14.00">id :INTEGER</text>
<text text-anchor="start" x="240" y="-158.3" font-family="Times,serif" font-size="14.00">name :varchar</text>
<text text-anchor="start" x="240" y="-143.3" font-family="Times,serif" font-size="14.00">image :varchar</text>
<text text-anchor="start" x="240" y="-128.3" font-family="Times,serif" font-size="14.00">short_description :varchar</text>
<text text-anchor="start" x="240" y="-113.3" font-family="Times,serif" font-size="14.00">long_description :text</text>
<text text-anchor="start" x="240" y="-98.3" font-family="Times,serif" font-size="14.00">origin :varchar</text>
<text text-anchor="start" x="240" y="-83.3" font-family="Times,serif" font-size="14.00">grape :varchar</text>
<text text-anchor="start" x="240" y="-68.3" font-family="Times,serif" font-size="14.00">vegitarian :boolean</text>
<text text-anchor="start" x="240" y="-53.3" font-family="Times,serif" font-size="14.00">size :decimal</text>
<text text-anchor="start" x="240" y="-38.3" font-family="Times,serif" font-size="14.00">price :float</text>
<text text-anchor="start" x="240" y="-23.3" font-family="Times,serif" font-size="14.00">created_at :datetime</text>
<text text-anchor="start" x="240" y="-8.3" font-family="Times,serif" font-size="14.00">updated_at :datetime</text>
</g>
</g>
</svg>
